<?xml version="1.0" standalone="no"?>
<!DOCTYPE svg PUBLIC "-//W3C//DTD SVG 20010904//EN"
 "http://www.w3.org/TR/2001/REC-SVG-20010904/DTD/svg10.dtd">
<svg version="1.0" xmlns="http://www.w3.org/2000/svg"
 width="776.000000pt" height="776.000000pt" viewBox="0 0 776.000000 776.000000"
 preserveAspectRatio="xMidYMid meet">
<metadata>
Created by potrace 1.11, written by Peter Selinger 2001-2013
</metadata>
<g transform="translate(0.000000,776.000000) scale(0.100000,-0.100000)"
fill="#000000" stroke="none">
<path d="M203 7742 c-100 -35 -172 -115 -193 -216 -7 -35 -9 -1157 -8 -3676
l3 -3625 28 -57 c32 -64 80 -111 146 -142 l46 -21 3655 0 3655 0 57 28 c64 32
111 80 142 146 l21 46 0 3655 0 3655 -21 46 c-31 66 -78 114 -142 146 l-57 28
-3640 2 c-3474 2 -3642 2 -3692 -15z m4061 -2450 c112 -31 209 -82 305 -158
144 -115 235 -253 283 -429 22 -80 22 -83 26 -1148 3 -960 1 -1071 -13 -1093
l-15 -24 -325 0 c-281 0 -326 2 -339 16 -14 14 -16 113 -16 938 0 1005 1 977
-57 1094 -57 114 -180 201 -313 222 -39 6 -335 10 -752 10 l-687 0 -15 -22
c-14 -19 -16 -148 -16 -1127 0 -796 -3 -1108 -11 -1118 -9 -10 -76 -13 -335
-13 -280 0 -325 2 -338 16 -14 14 -16 157 -16 1424 0 1278 1 1410 16 1425 15
14 132 15 1278 13 l1261 -3 79 -23z m1847 18 c19 -11 19 -37 19 -1430 0 -1393
0 -1419 -19 -1430 -27 -14 -635 -14 -662 0 -19 11 -19 37 -19 1428 0 1090 3
1421 12 1430 16 16 640 17 669 2z m-2503 -1112 c9 -9 12 -216 12 -869 0 -766
-2 -859 -16 -873 -13 -14 -59 -16 -353 -16 -249 0 -340 3 -349 12 -17 17 -17
1729 0 1746 17 17 689 17 706 0z"/>
</g>
</svg>
