<svg version="1" xmlns="http://www.w3.org/2000/svg" width="3468" height="3468" viewBox="0 0 2601.000000 2601.000000"><path d="M1269 1.1C1058.1 6 852.2 61.9 669.5 163.8 507 254.4 366.8 377.5 255.8 527c-117 157.6-196.1 338.4-232.7 531.5-16.8 88.7-23.9 177.1-22 272.2 4.4 210.2 59.8 415.3 162.2 599.8 88.6 159.8 211.8 301.1 358.2 410.6 217.8 163.1 478.1 253.1 748.5 258.8 100.4 2.1 191.2-5.8 287-24.9 216.4-43.2 418.7-141.6 587-285.5 52.6-45 100.9-93.2 145.1-145 89.7-105.1 161.8-222.9 214.1-350 79.3-192.8 110.8-403.8 91.7-613.5-27.6-303-160.4-585.4-376.3-800.5-112.5-112.1-239.2-199.7-383.1-265-155.1-70.4-331.8-110.9-497-114-15.4-.3-30.7-.7-34-.8-3.3-.2-19.3 0-35.5.4zM974.8 683.2l-.3 223.3-5.5.7c-36.7 4.6-56.9 43.4-39.7 76.2 6.1 11.8 20 22.6 32.7 25.5 2.5.6 8 1.1 12.3 1.1h7.8l135.1 135.1 135.1 135.1-1.7 6.8c-2.1 8.7-2.1 19.8.1 27.3l1.6 5.9-97.5 97.5-97.4 97.4-8.3-1.6c-23.1-4.7-45.7 6.6-56.1 28-5.8 11.8-6.6 20.7-3.6 37.5l.7 3.5-265.1 265-265 265V460h515l-.2 223.2zm741.3 173.2l-396.4 396.4-4.1-1.6c-6.4-2.5-24.4-2.1-32.1.7l-6 2.1-131.3-131.3-131.4-131.4 3.2-4.6c5.8-8.6 7.5-14.8 7.5-27.7 0-12.9-1.3-17.9-6.9-27.3l-3.4-5.6 232.6-232.9 232.7-232.9 316-.2 316-.1-396.4 396.4zm424.9 444.3v816.8L1910.5 1887c-188.3-188.2-230.5-230.9-230-232.5 5.7-19.2.8-38.4-13.2-52.4-12.9-12.9-31.4-18.1-48.3-13.7l-5.5 1.5-133.3-133.2c-94.4-94.4-133-133.6-132.6-134.7 3.4-7.8 3.8-10.2 3.8-21 .1-9.6-.3-12.5-2.2-17.5l-2.2-6 396.7-396.7C1962 662.5 2140.6 484 2140.7 484c.2 0 .3 367.5.3 816.7zm-840.6 51.5c5.3-.1 11.2-.7 14.1-1.6 2.8-.9 5.4-1.6 5.8-1.6.8 0 260.7 259.6 263.5 263.1 1 1.4.8 3-1.4 9.5-4.9 14.6-3.1 31.6 4.6 43.8l3.1 4.9-2.8 2.9c-8.4 8.9-205.7 205.8-206.2 205.8-.3 0-66.7-66.1-147.5-146.9l-146.9-146.9 1.9-5.9c2.9-9.1 2.6-23.8-.9-32.8l-2.7-7 96.1-96.1 96-96 7.2 2.4c5.4 1.8 9.2 2.4 16.1 2.4zm-276.9 261c8.2 2.9 23.5 3 31.7.1l5.6-2 147.2 147.2 147.1 147.1-117.7 117.7-117.7 117.7H483.5L749 1875.5c183.2-183.2 266-265.3 267-264.9.8.3 4.2 1.5 7.5 2.6zm860.8 299l228.2 228.3-242.5.3c-193.2.2-242.5 0-243.2-1-.4-.7-.7-102.1-.5-225.3l.2-224 8.5-.6c7.6-.5 10.2-1.2 20.8-5.8.1 0 102.9 102.6 228.5 228.1z"/></svg>