<svg version="1" xmlns="http://www.w3.org/2000/svg" width="826.667" height="826.667" viewBox="0 0 620.000000 620.000000"><path d="M49.3 12.5C35.6 16.2 23 26.1 17.1 37.8 10.5 50.8 11 30.1 11 310c0 279.3-.4 259.4 5.9 271.8 1.7 3.1 4.1 7 5.5 8.7l2.5 3L165.4 453 306 312.5l-58-58c-31.9-31.9-58-58.5-58-59.1 0-.6.9-1.9 2-2.9 2-1.8 2-3.1 2-91.7V11l-69.7.1c-56.7 0-70.8.3-75 1.4z"/><path d="M284.5 101l-90 90 58.3 58.2 58.2 58.3 141.3-141.3L593.5 24.9l-3-2.5c-1.6-1.4-5.6-3.8-8.7-5.5-12-6.1-8.3-5.9-112.3-5.9h-95l-90 90zM456.5 171l-141 141 140.2 140.2 140.2 140.2 2-2.5c3.5-4.2 8-13.3 9.6-19.4 1.3-5.2 1.5-35.1 1.5-260.5 0-222.4-.2-255.3-1.5-260.3-1.6-6.2-5.2-13.9-8.1-17.5l-1.9-2.2-141 141zM266.8 360.7c-24.1 24-43.8 43.9-43.8 44.2 0 .3 25.4 26 56.5 57.1l56.5 56.5 44-44 44-44-56.7-56.7-56.8-56.8-43.7 43.7zM123.6 503.9l-93.9 93.9 4.8 3.1c2.7 1.7 7.4 4.1 10.5 5.4l5.5 2.2 97.5.3 97.5.2 43-43 43-43-56.5-56.5c-31.1-31.1-56.7-56.5-57-56.5-.3 0-42.8 42.3-94.4 93.9zM426 520.8V609h69.3c58.2 0 70.2-.2 75-1.5 6-1.5 14.6-5.5 18.4-8.5 2.1-1.6 1.3-2.5-80.3-84.1L426 432.5v88.3z"/></svg>