<?xml version="1.0" standalone="no"?>
<!DOCTYPE svg PUBLIC "-//W3C//DTD SVG 20010904//EN"
 "http://www.w3.org/TR/2001/REC-SVG-20010904/DTD/svg10.dtd">
<svg version="1.0" xmlns="http://www.w3.org/2000/svg"
 width="800.000000pt" height="800.000000pt" viewBox="0 0 800.000000 800.000000"
 preserveAspectRatio="xMidYMid meet">
<metadata>
Created by potrace 1.14, written by Peter Selinger 2001-2017
</metadata>
<g transform="translate(0.000000,800.000000) scale(0.100000,-0.100000)"
fill="#000000" stroke="none">
<path d="M0 4000 l0 -4000 4000 0 4000 0 0 4000 0 4000 -4000 0 -4000 0 0
-4000z m5228 1475 c96 -165 176 -306 179 -312 4 -10 -206 -13 -1018 -15
l-1023 -3 -119 -205 c-66 -113 -154 -266 -197 -340 -43 -74 -137 -237 -209
-362 -72 -124 -131 -232 -131 -238 0 -11 104 -194 340 -600 37 -63 122 -211
189 -327 l123 -213 149 0 c82 0 149 2 149 5 0 3 -11 22 -23 43 -13 20 -112
190 -219 377 -108 187 -246 427 -307 532 -61 106 -111 195 -111 198 0 3 159 5
353 5 l352 0 36 -63 c20 -34 123 -213 229 -397 107 -184 268 -463 358 -620 91
-157 217 -375 280 -485 63 -110 118 -204 123 -210 5 -5 9 -13 9 -17 0 -4 -395
-8 -877 -8 l-878 0 -385 667 c-212 367 -443 768 -513 890 l-128 224 513 889
513 890 1034 -3 1035 -2 174 -300z m389 -675 c225 -388 301 -525 297 -531 -3
-5 -313 -8 -689 -9 -377 0 -685 -2 -685 -5 -1 -10 37 -76 345 -609 172 -298
353 -612 403 -699 l92 -159 -150 -259 c-83 -142 -155 -270 -162 -284 -6 -14
-14 -25 -18 -25 -4 0 -69 107 -145 238 -197 339 -463 799 -760 1312 -142 245
-267 457 -277 473 l-19 27 -340 0 c-186 0 -339 3 -339 7 0 3 80 145 178 315
l177 308 1019 -3 1018 -2 55 -95z m412 -806 c11 -24 -6 -56 -245 -470 -141
-244 -259 -444 -264 -444 -4 0 -63 96 -131 213 -68 116 -190 326 -271 466 -81
140 -148 256 -148 258 0 2 236 3 523 3 l524 0 12 -26z"/>
</g>
</svg>
