<?xml version="1.0" standalone="no"?>
<!DOCTYPE svg PUBLIC "-//W3C//DTD SVG 20010904//EN"
 "http://www.w3.org/TR/2001/REC-SVG-20010904/DTD/svg10.dtd">
<svg version="1.0" xmlns="http://www.w3.org/2000/svg"
 width="512.000000pt" height="512.000000pt" viewBox="0 0 512.000000 512.000000"
 preserveAspectRatio="xMidYMid meet">
<metadata>
Created by potrace 1.11, written by Peter Selinger 2001-2013
</metadata>
<g transform="translate(0.000000,512.000000) scale(0.100000,-0.100000)"
fill="#000000" stroke="none">
<path d="M415 5110 c-183 -38 -330 -170 -391 -350 -18 -53 -19 -134 -19 -2200
0 -2066 1 -2147 19 -2200 52 -154 168 -274 322 -332 l59 -23 2155 0 2155 0 59
23 c154 58 270 178 322 332 18 53 19 134 19 2200 0 2066 -1 2147 -19 2200 -52
154 -168 274 -322 332 l-59 23 -2130 1 c-1172 1 -2148 -2 -2170 -6z m4461
-2074 c36 -24 54 -58 60 -112 5 -40 -2 -73 -36 -178 -24 -78 -46 -170 -53
-228 l-11 -98 -57 0 -57 0 -7 68 c-8 83 -36 204 -69 301 -15 41 -26 92 -26
113 0 72 37 129 96 148 40 13 131 5 160 -14z m-2606 -31 c147 -52 204 -158
217 -405 7 -122 -9 -258 -39 -337 -50 -134 -172 -203 -358 -203 -239 0 -342
97 -371 348 -6 54 -8 142 -5 198 17 270 100 380 316 418 48 9 195 -3 240 -19z
m-1820 -212 c0 -119 3 -213 7 -210 3 4 48 100 99 215 l92 207 131 3 c72 1 131
-1 131 -5 0 -4 -52 -102 -114 -217 l-114 -209 34 -51 c25 -39 150 -300 211
-443 4 -10 -27 -13 -136 -13 -135 0 -141 1 -155 23 -8 12 -42 92 -76 177 -35
85 -72 173 -84 195 l-21 40 -3 -218 -2 -218 -128 3 -127 3 -3 468 -2 467 130
0 130 0 0 -217z m2629 150 c80 -271 241 -845 241 -858 0 -13 -19 -15 -142 -13
l-143 3 -19 73 -19 72 -113 0 c-125 0 -116 5 -130 -75 -13 -75 -12 -75 -134
-75 -85 0 -110 3 -110 13 0 8 54 206 119 441 96 341 118 433 110 452 -5 14 -9
27 -9 30 0 2 74 4 165 4 l164 0 20 -67z m-1534 -193 c27 -13 50 -34 66 -63 24
-41 24 -46 27 -330 l3 -288 -128 3 -128 3 -5 238 c-5 222 -6 240 -24 253 -28
20 -59 17 -90 -7 l-26 -20 0 -235 0 -235 -127 3 -128 3 -3 259 c-2 246 -3 260
-22 273 -15 11 -20 26 -20 58 0 44 1 44 43 55 23 6 55 15 71 20 16 6 67 10
112 10 l84 0 0 -44 0 -44 38 35 c77 72 175 93 257 53z m2288 -9 c71 -34 75
-43 69 -148 l-4 -93 -58 0 -58 0 -22 60 c-21 57 -24 60 -56 60 -53 0 -92 -42
-105 -115 -14 -75 -6 -192 16 -238 10 -21 29 -40 46 -47 37 -16 143 -6 176 15
22 15 23 14 39 -22 29 -69 25 -82 -34 -115 -46 -27 -66 -32 -147 -36 -128 -6
-192 14 -261 83 -69 69 -94 136 -94 254 0 186 71 299 223 353 71 25 206 20
270 -11z m620 0 c75 -36 79 -45 71 -150 l-7 -91 -57 0 -57 0 -22 60 c-21 57
-24 60 -55 60 -43 0 -81 -31 -97 -78 -19 -57 -17 -230 4 -269 37 -70 96 -80
233 -38 19 6 24 0 39 -44 9 -28 14 -55 10 -61 -4 -6 -30 -23 -58 -37 -47 -25
-62 -28 -162 -28 -95 0 -117 3 -162 24 -61 27 -116 84 -147 150 -18 39 -21 65
-21 166 0 111 2 124 27 176 44 89 107 144 203 176 60 20 202 11 258 -16z m410
-457 c37 -36 67 -71 67 -77 0 -17 -132 -147 -149 -147 -17 0 -151 129 -151
144 0 17 133 146 150 146 8 0 45 -30 83 -66z"/>
<path d="M2051 2871 c-11 -11 -24 -37 -30 -58 -14 -50 -14 -486 0 -536 13 -49
41 -77 77 -77 79 0 95 58 96 350 0 226 -7 278 -44 318 -26 27 -73 29 -99 3z"/>
<path d="M2866 2700 c-3 -14 -19 -89 -35 -167 l-28 -143 77 0 77 0 -37 154
c-46 187 -46 187 -54 156z"/>
</g>
</svg>
